<svg width="540" height="540" viewBox="0 0 540 540" fill="none" xmlns="http://www.w3.org/2000/svg">
<rect width="540" height="540" rx="90" fill="url(#paint0_linear_13_2)"/>
<path d="M155.464 231.536C157.417 229.583 160.583 229.583 162.536 231.536L252.464 321.464C254.417 323.417 254.417 326.583 252.464 328.536L162.536 418.464C160.583 420.417 157.417 420.417 155.464 418.464L65.5355 328.536C63.5829 326.583 63.5829 323.417 65.5355 321.464L155.464 231.536Z" fill="#363636"/>
<path d="M377.464 231.536C379.417 229.583 382.583 229.583 384.536 231.536L474.464 321.464C476.417 323.417 476.417 326.583 474.464 328.536L384.536 418.464C382.583 420.417 379.417 420.417 377.464 418.464L287.536 328.536C285.583 326.583 285.583 323.417 287.536 321.464L377.464 231.536Z" fill="#363636"/>
<path d="M266.464 120.536C268.417 118.583 271.583 118.583 273.536 120.536L363.464 210.464C365.417 212.417 365.417 215.583 363.464 217.536L273.536 307.464C271.583 309.417 268.417 309.417 266.464 307.464L176.536 217.536C174.583 215.583 174.583 212.417 176.536 210.464L266.464 120.536Z" fill="#363636"/>
<defs>
<linearGradient id="paint0_linear_13_2" x1="270" y1="0" x2="270" y2="540" gradientUnits="userSpaceOnUse">
<stop stop-color="#00C9FF"/>
<stop offset="1" stop-color="#92FE9D"/>
</linearGradient>
</defs>
</svg>
